<?xml version="1.0" encoding="UTF-8" standalone="no"?>
<svg
   xmlns:ooo="http://xml.openoffice.org/svg/export"
   xmlns:dc="http://purl.org/dc/elements/1.1/"
   xmlns:cc="http://creativecommons.org/ns#"
   xmlns:rdf="http://www.w3.org/1999/02/22-rdf-syntax-ns#"
   xmlns:svg="http://www.w3.org/2000/svg"
   xmlns="http://www.w3.org/2000/svg"
   xmlns:sodipodi="http://sodipodi.sourceforge.net/DTD/sodipodi-0.dtd"
   xmlns:inkscape="http://www.inkscape.org/namespaces/inkscape"
   version="1.2"
   width="100mm"
   height="100mm"
   viewBox="0 0 10000 10000"
   preserveAspectRatio="xMidYMid"
   fill-rule="evenodd"
   clip-path="url(#presentation_clip_path)"
   stroke-width="28.222"
   stroke-linejoin="round"
   xml:space="preserve"
   id="svg2"
   inkscape:version="0.48.2 r9819"
   sodipodi:docname="nanite_robot v2.svg"><metadata
   id="metadata255"><rdf:RDF><cc:Work
       rdf:about=""><dc:format>image/svg+xml</dc:format><dc:type
         rdf:resource="http://purl.org/dc/dcmitype/StillImage" /><dc:title></dc:title></cc:Work></rdf:RDF></metadata><sodipodi:namedview
   pagecolor="#ffffff"
   bordercolor="#666666"
   borderopacity="1"
   objecttolerance="10"
   gridtolerance="10"
   guidetolerance="10"
   inkscape:pageopacity="0"
   inkscape:pageshadow="2"
   inkscape:window-width="1236"
   inkscape:window-height="756"
   id="namedview253"
   showgrid="false"
   inkscape:zoom="1.5183555"
   inkscape:cx="94.510145"
   inkscape:cy="177.16536"
   inkscape:window-x="44"
   inkscape:window-y="0"
   inkscape:window-maximized="1"
   inkscape:current-layer="svg2" />
 <defs
   class="ClipPathGroup"
   id="defs4">
  <clipPath
   id="presentation_clip_path"
   clipPathUnits="userSpaceOnUse">
   <rect
   x="0"
   y="0"
   width="10000"
   height="10000"
   id="rect7" />
  </clipPath>
 
  
 
   
  
    
   
     
    
      
      
      
     
       
       
       
      
       
       
       
      
         
         
         
         
         
         
         
         
         
         
         
         
         
         
         
         
         
         
         
         
         
         
         
         
         
        
       
       
       
      
        
       
         
         
         
         
         
         
         
         
         
         
         
         
         
         
         
         
         
         
         
         
         
         
         
         
         
        
        
       </defs>
 <defs
   class="TextShapeIndex"
   id="defs9">
  <g
   ooo:slide="id1"
   ooo:id-list="id3 id4 id5 id6 id7 id8 id9 id10 id11"
   id="g11" />
 </defs>
 <defs
   class="EmbeddedBulletChars"
   id="defs13">
  <g
   id="bullet-char-template(57356)"
   transform="scale(0.00048828125,-0.00048828125)">
   <path
   d="M 580,1141 L 1163,571 580,0 -4,571 580,1141 Z"
   id="path16" />
  </g>
  <g
   id="bullet-char-template(57354)"
   transform="scale(0.00048828125,-0.00048828125)">
   <path
   d="M 8,1128 L 1137,1128 1137,0 8,0 8,1128 Z"
   id="path19" />
  </g>
  <g
   id="bullet-char-template(10146)"
   transform="scale(0.00048828125,-0.00048828125)">
   <path
   d="M 174,0 L 602,739 174,1481 1456,739 174,0 Z M 1358,739 L 309,1346 659,739 1358,739 Z"
   id="path22" />
  </g>
  <g
   id="bullet-char-template(10132)"
   transform="scale(0.00048828125,-0.00048828125)">
   <path
   d="M 2015,739 L 1276,0 717,0 1260,543 174,543 174,936 1260,936 717,1481 1274,1481 2015,739 Z"
   id="path25" />
  </g>
  <g
   id="bullet-char-template(10007)"
   transform="scale(0.00048828125,-0.00048828125)">
   <path
   d="M 0,-2 C -7,14 -16,27 -25,37 L 356,567 C 262,823 215,952 215,954 215,979 228,992 255,992 264,992 276,990 289,987 310,991 331,999 354,1012 L 381,999 492,748 772,1049 836,1024 860,1049 C 881,1039 901,1025 922,1006 886,937 835,863 770,784 769,783 710,716 594,584 L 774,223 C 774,196 753,168 711,139 L 727,119 C 717,90 699,76 672,76 641,76 570,178 457,381 L 164,-76 C 142,-110 111,-127 72,-127 30,-127 9,-110 8,-76 1,-67 -2,-52 -2,-32 -2,-23 -1,-13 0,-2 Z"
   id="path28" />
  </g>
  <g
   id="bullet-char-template(10004)"
   transform="scale(0.00048828125,-0.00048828125)">
   <path
   d="M 285,-33 C 182,-33 111,30 74,156 52,228 41,333 41,471 41,549 55,616 82,672 116,743 169,778 240,778 293,778 328,747 346,684 L 369,508 C 377,444 397,411 428,410 L 1163,1116 C 1174,1127 1196,1133 1229,1133 1271,1133 1292,1118 1292,1087 L 1292,965 C 1292,929 1282,901 1262,881 L 442,47 C 390,-6 338,-33 285,-33 Z"
   id="path31" />
  </g>
  <g
   id="bullet-char-template(9679)"
   transform="scale(0.00048828125,-0.00048828125)">
   <path
   d="M 813,0 C 632,0 489,54 383,161 276,268 223,411 223,592 223,773 276,916 383,1023 489,1130 632,1184 813,1184 992,1184 1136,1130 1245,1023 1353,916 1407,772 1407,592 1407,412 1353,268 1245,161 1136,54 992,0 813,0 Z"
   id="path34" />
  </g>
  <g
   id="bullet-char-template(8226)"
   transform="scale(0.00048828125,-0.00048828125)">
   <path
   d="M 346,457 C 273,457 209,483 155,535 101,586 74,649 74,723 74,796 101,859 155,911 209,963 273,989 346,989 419,989 480,963 531,910 582,859 608,796 608,723 608,648 583,586 532,535 482,483 420,457 346,457 Z"
   id="path37" />
  </g>
  <g
   id="bullet-char-template(8211)"
   transform="scale(0.00048828125,-0.00048828125)">
   <path
   d="M -4,459 L 1135,459 1135,606 -4,606 -4,459 Z"
   id="path40" />
  </g>
 </defs>
 <defs
   class="TextEmbeddedBitmaps"
   id="defs42" />
 <g
   id="g44">
  <g
   id="id2"
   class="Master_Slide">
   <g
   id="bg-id2"
   class="Background" />
   <g
   id="bo-id2"
   class="BackgroundObjects" />
  </g>
 </g>
 <g
   id="g4813"
   transform="translate(22.909884,0)"><g
     id="g125"
     class="com.sun.star.drawing.ClosedBezierShape">
        <g
   id="id6">
         <path
   sodipodi:nodetypes="ccccccccccccccccccccccccccc"
   style="fill:#000000;stroke:none"
   inkscape:connector-curvature="0"
   id="path128"
   d="m 544,3162 c 721,981 1367,2018 2151,2953 315,389 680,795 739,1313 26,267 -127,199.8889 -424,220.8889 -329,21 -597,-206 -877,-344 -192,-113 -389,-234 -612,-271 -161,169 -341,-174 -54,-128 339,-17 605,233 897,367 211,119 443,280 696,228 C 3312,7395.8889 3337,7458 3256,7232 3071,6694 2642,6298 2308,5853 1662,5036 1096,4162 492,3315 c -150,361 58,738 263,1029 274,424 585,825 934,1190 -149,212 -315,-197 -441,-287 -223,-266 -424,-550 -616,-839 82,558 473,995 778,1447 80,153 297,289 309,436 -202,94 -292,-259 -430,-368 -151,-200 -286,-411 -433,-614 -78,365 83,730 256,1043 99,164 219,315 355,451 -134,225 -318,-179 -412,-285 C 790,6126 626,5635 728,5161 690,4883 438,4659 513,4358 481,4068 264,3819 305,3515 c 12,-110 65,-449 239,-353 z" />
        </g>
       </g><g
     id="id7">
         <path
   sodipodi:nodetypes="ccccccccccccccccccccccccccc"
   d="m 9456,3297 c -721,981 -1367,2018 -2151,2952 -315,389 -680,795 -739,1313 -26,267 126,200.8889 424,220.8889 329,22 598,-206 876,-343 193,-114 389,-235 613,-272 160,169 341,-174 54,-128 -339,-16 -605,234 -897,368 -211,118 -443,280 -696,227 -253,-105 -277,-41.8889 -196,-268.8889 184,-538 614,-934 948,-1379 645,-816 1212,-1690 1816,-2537 150,361 -58,738 -264,1029 -273,423 -585,825 -934,1190 150,212 316,-198 441,-287 224,-266 425,-550 618,-840 -82,559 -474,996 -779,1447 -80,153 -297,290 -309,436 202,95 292,-258 430,-367 151,-200 286,-411 432,-614 79,364 -82,729 -256,1042 -98,165 -218,316 -353,451 132,226 316,-179 411,-285 264,-392 429,-883 327,-1357 38,-278 290,-502 214,-802 33,-291 250,-540 208,-844 -12,-109 -64,-449 -238,-352 z"
   id="path133"
   inkscape:connector-curvature="0"
   style="fill:#000000;stroke:none" />
        </g><path
     style="fill:#343434;stroke:none"
     inkscape:connector-curvature="0"
     id="path138"
     d="m 6303,5872 174,83 415,-869 -347,-166 -415,869 173,83 z" /><path
     style="fill:none;stroke:#000000;stroke-width:178;stroke-linejoin:round"
     inkscape:connector-curvature="0"
     id="path140"
     d="m 6303,5872 174,83 415,-869 -347,-166 -415,869 173,83 z" /><path
     style="fill:#343434;stroke:none"
     inkscape:connector-curvature="0"
     id="path142"
     d="m 3845,5872 -174,83 -415,-869 348,-166 415,869 -174,83 z" /><path
     style="fill:none;stroke:#000000;stroke-width:178;stroke-linejoin:round"
     inkscape:connector-curvature="0"
     id="path144"
     d="m 3845,5872 -174,83 -415,-869 348,-166 415,869 -174,83 z" /><path
     style="fill:#8e8e8e;stroke:none"
     inkscape:connector-curvature="0"
     id="path146"
     d="m 5077,9574 -2001,0 0,-4067 4003,0 0,4067 -2002,0 z" /><path
     style="fill:none;stroke:#000000;stroke-width:254;stroke-linejoin:round"
     inkscape:connector-curvature="0"
     id="path148"
     d="m 5077,9574 -2001,0 0,-4067 4003,0 0,4067 -2002,0 z" /><path
     style="fill:#eeeeee;stroke:none"
     inkscape:connector-curvature="0"
     id="path150"
     d="m 5077,9107 -1454,0 0,-1191 2909,0 0,1191 -1455,0 z" /><path
     style="fill:none;stroke:#000000;stroke-width:198;stroke-linejoin:miter"
     inkscape:connector-curvature="0"
     id="path152"
     d="m 5077,9107 -1454,0 0,-1191 2909,0 0,1191 -1455,0 z" /><path
     style="fill:none;stroke:#000000;stroke-width:198;stroke-linejoin:miter"
     inkscape:connector-curvature="0"
     id="path154"
     d="m 3649,8512 2857,0" /><path
     style="fill:none;stroke:#000000;stroke-width:198;stroke-linejoin:miter"
     inkscape:connector-curvature="0"
     id="path156"
     d="m 5364,7910 0,1123" /><path
     style="fill:none;stroke:#000000;stroke-width:198;stroke-linejoin:miter"
     inkscape:connector-curvature="0"
     id="path158"
     d="m 4791,7910 0,1123" /><path
     style="fill:none;stroke:#000000;stroke-width:198;stroke-linejoin:miter"
     inkscape:connector-curvature="0"
     id="path160"
     d="m 5936,7910 0,1123" /><path
     style="fill:none;stroke:#000000;stroke-width:198;stroke-linejoin:miter"
     inkscape:connector-curvature="0"
     id="path162"
     d="m 4219,7910 0,1123" /><path
     style="fill:#f98a75;stroke:none"
     inkscape:connector-curvature="0"
     id="path172"
     d="m 4966,6714 0,0 c 0,116 -29,216 -92,317 -62,101 -141,173 -249,232 -109,58 -216,85 -341,85 -126,0 -233,-27 -342,-85 -108,-59 -186,-131 -249,-232 -63,-101 -92,-201 -92,-317 l 0,0 c 0,0 0,0 0,0 0,-117 29,-216 92,-317 63,-102 141,-174 249,-233 109,-58 216,-84 342,-84 125,0 232,26 341,84 108,59 187,131 249,233 63,101 92,200 92,317 0,0 0,0 0,0 l 0,0 z" /><path
     style="fill:none;stroke:#000000;stroke-width:153;stroke-linejoin:round"
     inkscape:connector-curvature="0"
     id="path174"
     d="m 4966,6714 0,0 c 0,116 -29,216 -92,317 -62,101 -141,173 -249,232 -109,58 -216,85 -341,85 -126,0 -233,-27 -342,-85 -108,-59 -186,-131 -249,-232 -63,-101 -92,-201 -92,-317 l 0,0 c 0,0 0,0 0,0 0,-117 29,-216 92,-317 63,-102 141,-174 249,-233 109,-58 216,-84 342,-84 125,0 232,26 341,84 108,59 187,131 249,233 63,101 92,200 92,317 0,0 0,0 0,0 l 0,0 z" /><path
     style="fill:#000000;stroke:none"
     inkscape:connector-curvature="0"
     id="path176"
     d="m 4436,6682 c 0,25 -6,46 -18,68 -13,22 -28,37 -50,50 -22,12 -43,18 -68,18 -25,0 -47,-6 -69,-18 -21,-13 -37,-28 -50,-50 -12,-22 -18,-43 -18,-68 0,0 0,0 0,0 0,0 0,0 0,0 0,-26 6,-47 18,-69 13,-21 29,-37 50,-50 22,-12 44,-18 69,-18 25,0 46,6 68,18 22,13 37,29 50,50 12,22 18,43 18,69 0,0 0,0 0,0 0,0 0,0 0,0 z" /><path
     style="fill:none;stroke:#000000;stroke-width:153;stroke-linejoin:round"
     inkscape:connector-curvature="0"
     id="path178"
     d="m 4436,6682 0,0 c 0,0 0,0 0,0 0,25 -6,46 -18,68 -13,22 -28,37 -50,50 -22,12 -43,18 -68,18 -25,0 -47,-6 -69,-18 -21,-13 -37,-28 -50,-50 -12,-22 -18,-43 -18,-68 0,0 0,0 0,0 l 0,0 c 0,0 0,0 0,0 0,-26 6,-47 18,-69 13,-21 29,-37 50,-50 22,-12 44,-18 69,-18 25,0 46,6 68,18 22,13 37,29 50,50 12,22 18,43 18,69 0,0 0,0 0,0 l 0,0 z" /><path
     style="fill:#f98a75;stroke:none"
     inkscape:connector-curvature="0"
     id="path180"
     d="m 6462,7031 c -63,101 -141,173 -250,232 -109,58 -215,85 -341,85 -126,0 -232,-27 -341,-85 -109,-59 -187,-131 -250,-232 -63,-101 -91,-201 -91,-317 0,-117 28,-216 91,-317 63,-101 141,-174 250,-232 109,-59 215,-85 341,-85 126,0 232,26 341,85 109,58 187,131 250,232 63,101 91,200 91,317 0,116 -28,216 -91,317 z" /><path
     style="fill:none;stroke:#000000;stroke-width:153;stroke-linejoin:round"
     inkscape:connector-curvature="0"
     id="path182"
     d="m 6553,6714 0,0 c 0,116 -28,216 -91,317 -63,101 -141,173 -250,232 -109,58 -215,85 -341,85 -126,0 -232,-27 -341,-85 -109,-59 -187,-131 -250,-232 -63,-101 -91,-201 -91,-317 l 0,0 c 0,-117 28,-216 91,-317 63,-101 141,-174 250,-232 109,-59 215,-85 341,-85 126,0 232,26 341,85 109,58 187,131 250,232 63,101 91,200 91,317 l 0,0 0,0 z" /><path
     style="fill:#000000;stroke:none"
     inkscape:connector-curvature="0"
     id="path184"
     d="m 6023,6682 c 0,0 0,0 0,0 0,25 -5,46 -18,68 -12,22 -28,37 -50,50 -21,12 -43,18 -68,18 -25,0 -46,-6 -68,-18 -22,-13 -38,-28 -50,-50 -13,-22 -18,-43 -18,-68 0,0 0,0 0,0 0,0 0,0 0,0 0,-26 5,-47 18,-69 12,-21 28,-37 50,-50 22,-12 43,-18 68,-18 25,0 47,6 68,18 22,13 38,29 50,50 13,22 18,43 18,69 0,0 0,0 0,0 z" /><path
     style="fill:none;stroke:#000000;stroke-width:153;stroke-linejoin:round"
     inkscape:connector-curvature="0"
     id="path186"
     d="m 6023,6682 0,0 c 0,0 0,0 0,0 0,25 -5,46 -18,68 -12,22 -28,37 -50,50 -21,12 -43,18 -68,18 -25,0 -46,-6 -68,-18 -22,-13 -38,-28 -50,-50 -13,-22 -18,-43 -18,-68 0,0 0,0 0,0 l 0,0 c 0,0 0,0 0,0 0,-26 5,-47 18,-69 12,-21 28,-37 50,-50 22,-12 43,-18 68,-18 25,0 47,6 68,18 22,13 38,29 50,50 13,22 18,43 18,69 0,0 0,0 0,0 l 0,0 z" /></g>
<g
   id="g4841"
   transform="matrix(0.45010278,-0.16836806,0.16836806,0.45010278,-659.73397,261.12256)"><g
     class="com.sun.star.drawing.ClosedBezierShape"
     id="g4843">
        <g
   id="g4845">
         <path
   d="m 544,3162 c 721,981 1367,2018 2151,2953 315,389 680,795 739,1313 26,267 -127,199.8889 -424,220.8889 -329,21 -597,-206 -877,-344 -192,-113 -389,-234 -612,-271 -161,169 -341,-174 -54,-128 339,-17 605,233 897,367 211,119 443,280 696,228 C 3312,7395.8889 3337,7458 3256,7232 3071,6694 2642,6298 2308,5853 1662,5036 1096,4162 492,3315 c -150,361 58,738 263,1029 274,424 585,825 934,1190 -149,212 -315,-197 -441,-287 -223,-266 -424,-550 -616,-839 82,558 473,995 778,1447 80,153 297,289 309,436 -202,94 -292,-259 -430,-368 -151,-200 -286,-411 -433,-614 -78,365 83,730 256,1043 99,164 219,315 355,451 -134,225 -318,-179 -412,-285 C 790,6126 626,5635 728,5161 690,4883 438,4659 513,4358 481,4068 264,3819 305,3515 c 12,-110 65,-449 239,-353 z"
   id="path4847"
   inkscape:connector-curvature="0"
   style="fill:#000000;stroke:none"
   sodipodi:nodetypes="ccccccccccccccccccccccccccc" />
        </g>
       </g><g
     id="g4849">
         <path
   style="fill:#000000;stroke:none"
   inkscape:connector-curvature="0"
   id="path4851"
   d="m 9456,3297 c -721,981 -1367,2018 -2151,2952 -315,389 -680,795 -739,1313 -26,267 126,200.8889 424,220.8889 329,22 598,-206 876,-343 193,-114 389,-235 613,-272 160,169 341,-174 54,-128 -339,-16 -605,234 -897,368 -211,118 -443,280 -696,227 -253,-105 -277,-41.8889 -196,-268.8889 184,-538 614,-934 948,-1379 645,-816 1212,-1690 1816,-2537 150,361 -58,738 -264,1029 -273,423 -585,825 -934,1190 150,212 316,-198 441,-287 224,-266 425,-550 618,-840 -82,559 -474,996 -779,1447 -80,153 -297,290 -309,436 202,95 292,-258 430,-367 151,-200 286,-411 432,-614 79,364 -82,729 -256,1042 -98,165 -218,316 -353,451 132,226 316,-179 411,-285 264,-392 429,-883 327,-1357 38,-278 290,-502 214,-802 33,-291 250,-540 208,-844 -12,-109 -64,-449 -238,-352 z"
   sodipodi:nodetypes="ccccccccccccccccccccccccccc" />
        </g><path
     d="m 6303,5872 174,83 415,-869 -347,-166 -415,869 173,83 z"
     id="path4853"
     inkscape:connector-curvature="0"
     style="fill:#343434;stroke:none" /><path
     d="m 6303,5872 174,83 415,-869 -347,-166 -415,869 173,83 z"
     id="path4855"
     inkscape:connector-curvature="0"
     style="fill:none;stroke:#000000;stroke-width:178;stroke-linejoin:round" /><path
     d="m 3845,5872 -174,83 -415,-869 348,-166 415,869 -174,83 z"
     id="path4857"
     inkscape:connector-curvature="0"
     style="fill:#343434;stroke:none" /><path
     d="m 3845,5872 -174,83 -415,-869 348,-166 415,869 -174,83 z"
     id="path4859"
     inkscape:connector-curvature="0"
     style="fill:none;stroke:#000000;stroke-width:178;stroke-linejoin:round" /><path
     d="m 5077,9574 -2001,0 0,-4067 4003,0 0,4067 -2002,0 z"
     id="path4861"
     inkscape:connector-curvature="0"
     style="fill:#8e8e8e;stroke:none" /><path
     d="m 5077,9574 -2001,0 0,-4067 4003,0 0,4067 -2002,0 z"
     id="path4863"
     inkscape:connector-curvature="0"
     style="fill:none;stroke:#000000;stroke-width:254;stroke-linejoin:round" /><path
     d="m 5077,9107 -1454,0 0,-1191 2909,0 0,1191 -1455,0 z"
     id="path4865"
     inkscape:connector-curvature="0"
     style="fill:#eeeeee;stroke:none" /><path
     d="m 5077,9107 -1454,0 0,-1191 2909,0 0,1191 -1455,0 z"
     id="path4867"
     inkscape:connector-curvature="0"
     style="fill:none;stroke:#000000;stroke-width:198;stroke-linejoin:miter" /><path
     d="m 3649,8512 2857,0"
     id="path4869"
     inkscape:connector-curvature="0"
     style="fill:none;stroke:#000000;stroke-width:198;stroke-linejoin:miter" /><path
     d="m 5364,7910 0,1123"
     id="path4871"
     inkscape:connector-curvature="0"
     style="fill:none;stroke:#000000;stroke-width:198;stroke-linejoin:miter" /><path
     d="m 4791,7910 0,1123"
     id="path4873"
     inkscape:connector-curvature="0"
     style="fill:none;stroke:#000000;stroke-width:198;stroke-linejoin:miter" /><path
     d="m 5936,7910 0,1123"
     id="path4875"
     inkscape:connector-curvature="0"
     style="fill:none;stroke:#000000;stroke-width:198;stroke-linejoin:miter" /><path
     d="m 4219,7910 0,1123"
     id="path4877"
     inkscape:connector-curvature="0"
     style="fill:none;stroke:#000000;stroke-width:198;stroke-linejoin:miter" /><path
     d="m 4966,6714 0,0 c 0,116 -29,216 -92,317 -62,101 -141,173 -249,232 -109,58 -216,85 -341,85 -126,0 -233,-27 -342,-85 -108,-59 -186,-131 -249,-232 -63,-101 -92,-201 -92,-317 l 0,0 c 0,0 0,0 0,0 0,-117 29,-216 92,-317 63,-102 141,-174 249,-233 109,-58 216,-84 342,-84 125,0 232,26 341,84 108,59 187,131 249,233 63,101 92,200 92,317 0,0 0,0 0,0 l 0,0 z"
     id="path4879"
     inkscape:connector-curvature="0"
     style="fill:#f98a75;stroke:none" /><path
     d="m 4966,6714 0,0 c 0,116 -29,216 -92,317 -62,101 -141,173 -249,232 -109,58 -216,85 -341,85 -126,0 -233,-27 -342,-85 -108,-59 -186,-131 -249,-232 -63,-101 -92,-201 -92,-317 l 0,0 c 0,0 0,0 0,0 0,-117 29,-216 92,-317 63,-102 141,-174 249,-233 109,-58 216,-84 342,-84 125,0 232,26 341,84 108,59 187,131 249,233 63,101 92,200 92,317 0,0 0,0 0,0 l 0,0 z"
     id="path4881"
     inkscape:connector-curvature="0"
     style="fill:none;stroke:#000000;stroke-width:153;stroke-linejoin:round" /><path
     d="m 4436,6682 c 0,25 -6,46 -18,68 -13,22 -28,37 -50,50 -22,12 -43,18 -68,18 -25,0 -47,-6 -69,-18 -21,-13 -37,-28 -50,-50 -12,-22 -18,-43 -18,-68 0,0 0,0 0,0 0,0 0,0 0,0 0,-26 6,-47 18,-69 13,-21 29,-37 50,-50 22,-12 44,-18 69,-18 25,0 46,6 68,18 22,13 37,29 50,50 12,22 18,43 18,69 0,0 0,0 0,0 0,0 0,0 0,0 z"
     id="path4883"
     inkscape:connector-curvature="0"
     style="fill:#000000;stroke:none" /><path
     d="m 4436,6682 0,0 c 0,0 0,0 0,0 0,25 -6,46 -18,68 -13,22 -28,37 -50,50 -22,12 -43,18 -68,18 -25,0 -47,-6 -69,-18 -21,-13 -37,-28 -50,-50 -12,-22 -18,-43 -18,-68 0,0 0,0 0,0 l 0,0 c 0,0 0,0 0,0 0,-26 6,-47 18,-69 13,-21 29,-37 50,-50 22,-12 44,-18 69,-18 25,0 46,6 68,18 22,13 37,29 50,50 12,22 18,43 18,69 0,0 0,0 0,0 l 0,0 z"
     id="path4885"
     inkscape:connector-curvature="0"
     style="fill:none;stroke:#000000;stroke-width:153;stroke-linejoin:round" /><path
     d="m 6462,7031 c -63,101 -141,173 -250,232 -109,58 -215,85 -341,85 -126,0 -232,-27 -341,-85 -109,-59 -187,-131 -250,-232 -63,-101 -91,-201 -91,-317 0,-117 28,-216 91,-317 63,-101 141,-174 250,-232 109,-59 215,-85 341,-85 126,0 232,26 341,85 109,58 187,131 250,232 63,101 91,200 91,317 0,116 -28,216 -91,317 z"
     id="path4887"
     inkscape:connector-curvature="0"
     style="fill:#f98a75;stroke:none" /><path
     d="m 6553,6714 0,0 c 0,116 -28,216 -91,317 -63,101 -141,173 -250,232 -109,58 -215,85 -341,85 -126,0 -232,-27 -341,-85 -109,-59 -187,-131 -250,-232 -63,-101 -91,-201 -91,-317 l 0,0 c 0,-117 28,-216 91,-317 63,-101 141,-174 250,-232 109,-59 215,-85 341,-85 126,0 232,26 341,85 109,58 187,131 250,232 63,101 91,200 91,317 l 0,0 0,0 z"
     id="path4889"
     inkscape:connector-curvature="0"
     style="fill:none;stroke:#000000;stroke-width:153;stroke-linejoin:round" /><path
     d="m 6023,6682 c 0,0 0,0 0,0 0,25 -5,46 -18,68 -12,22 -28,37 -50,50 -21,12 -43,18 -68,18 -25,0 -46,-6 -68,-18 -22,-13 -38,-28 -50,-50 -13,-22 -18,-43 -18,-68 0,0 0,0 0,0 0,0 0,0 0,0 0,-26 5,-47 18,-69 12,-21 28,-37 50,-50 22,-12 43,-18 68,-18 25,0 47,6 68,18 22,13 38,29 50,50 13,22 18,43 18,69 0,0 0,0 0,0 z"
     id="path4891"
     inkscape:connector-curvature="0"
     style="fill:#000000;stroke:none" /><path
     d="m 6023,6682 0,0 c 0,0 0,0 0,0 0,25 -5,46 -18,68 -12,22 -28,37 -50,50 -21,12 -43,18 -68,18 -25,0 -46,-6 -68,-18 -22,-13 -38,-28 -50,-50 -13,-22 -18,-43 -18,-68 0,0 0,0 0,0 l 0,0 c 0,0 0,0 0,0 0,-26 5,-47 18,-69 12,-21 28,-37 50,-50 22,-12 43,-18 68,-18 25,0 47,6 68,18 22,13 38,29 50,50 13,22 18,43 18,69 0,0 0,0 0,0 l 0,0 z"
     id="path4893"
     inkscape:connector-curvature="0"
     style="fill:none;stroke:#000000;stroke-width:153;stroke-linejoin:round" /></g><g
   transform="matrix(-0.45010278,-0.16836806,-0.16836806,0.45010278,10704.792,261.12256)"
   id="g4895"><g
     id="g4897"
     class="com.sun.star.drawing.ClosedBezierShape">
        <g
   id="g4899">
         <path
   sodipodi:nodetypes="ccccccccccccccccccccccccccc"
   style="fill:#000000;stroke:none"
   inkscape:connector-curvature="0"
   id="path4901"
   d="m 544,3162 c 721,981 1367,2018 2151,2953 315,389 680,795 739,1313 26,267 -127,199.8889 -424,220.8889 -329,21 -597,-206 -877,-344 -192,-113 -389,-234 -612,-271 -161,169 -341,-174 -54,-128 339,-17 605,233 897,367 211,119 443,280 696,228 C 3312,7395.8889 3337,7458 3256,7232 3071,6694 2642,6298 2308,5853 1662,5036 1096,4162 492,3315 c -150,361 58,738 263,1029 274,424 585,825 934,1190 -149,212 -315,-197 -441,-287 -223,-266 -424,-550 -616,-839 82,558 473,995 778,1447 80,153 297,289 309,436 -202,94 -292,-259 -430,-368 -151,-200 -286,-411 -433,-614 -78,365 83,730 256,1043 99,164 219,315 355,451 -134,225 -318,-179 -412,-285 C 790,6126 626,5635 728,5161 690,4883 438,4659 513,4358 481,4068 264,3819 305,3515 c 12,-110 65,-449 239,-353 z" />
        </g>
       </g><g
     id="g4903">
         <path
   sodipodi:nodetypes="ccccccccccccccccccccccccccc"
   d="m 9456,3297 c -721,981 -1367,2018 -2151,2952 -315,389 -680,795 -739,1313 -26,267 126,200.8889 424,220.8889 329,22 598,-206 876,-343 193,-114 389,-235 613,-272 160,169 341,-174 54,-128 -339,-16 -605,234 -897,368 -211,118 -443,280 -696,227 -253,-105 -277,-41.8889 -196,-268.8889 184,-538 614,-934 948,-1379 645,-816 1212,-1690 1816,-2537 150,361 -58,738 -264,1029 -273,423 -585,825 -934,1190 150,212 316,-198 441,-287 224,-266 425,-550 618,-840 -82,559 -474,996 -779,1447 -80,153 -297,290 -309,436 202,95 292,-258 430,-367 151,-200 286,-411 432,-614 79,364 -82,729 -256,1042 -98,165 -218,316 -353,451 132,226 316,-179 411,-285 264,-392 429,-883 327,-1357 38,-278 290,-502 214,-802 33,-291 250,-540 208,-844 -12,-109 -64,-449 -238,-352 z"
   id="path4905"
   inkscape:connector-curvature="0"
   style="fill:#000000;stroke:none" />
        </g><path
     style="fill:#343434;stroke:none"
     inkscape:connector-curvature="0"
     id="path4907"
     d="m 6303,5872 174,83 415,-869 -347,-166 -415,869 173,83 z" /><path
     style="fill:none;stroke:#000000;stroke-width:178;stroke-linejoin:round"
     inkscape:connector-curvature="0"
     id="path4909"
     d="m 6303,5872 174,83 415,-869 -347,-166 -415,869 173,83 z" /><path
     style="fill:#343434;stroke:none"
     inkscape:connector-curvature="0"
     id="path4911"
     d="m 3845,5872 -174,83 -415,-869 348,-166 415,869 -174,83 z" /><path
     style="fill:none;stroke:#000000;stroke-width:178;stroke-linejoin:round"
     inkscape:connector-curvature="0"
     id="path4913"
     d="m 3845,5872 -174,83 -415,-869 348,-166 415,869 -174,83 z" /><path
     style="fill:#8e8e8e;stroke:none"
     inkscape:connector-curvature="0"
     id="path4915"
     d="m 5077,9574 -2001,0 0,-4067 4003,0 0,4067 -2002,0 z" /><path
     style="fill:none;stroke:#000000;stroke-width:254;stroke-linejoin:round"
     inkscape:connector-curvature="0"
     id="path4917"
     d="m 5077,9574 -2001,0 0,-4067 4003,0 0,4067 -2002,0 z" /><path
     style="fill:#eeeeee;stroke:none"
     inkscape:connector-curvature="0"
     id="path4919"
     d="m 5077,9107 -1454,0 0,-1191 2909,0 0,1191 -1455,0 z" /><path
     style="fill:none;stroke:#000000;stroke-width:198;stroke-linejoin:miter"
     inkscape:connector-curvature="0"
     id="path4921"
     d="m 5077,9107 -1454,0 0,-1191 2909,0 0,1191 -1455,0 z" /><path
     style="fill:none;stroke:#000000;stroke-width:198;stroke-linejoin:miter"
     inkscape:connector-curvature="0"
     id="path4923"
     d="m 3649,8512 2857,0" /><path
     style="fill:none;stroke:#000000;stroke-width:198;stroke-linejoin:miter"
     inkscape:connector-curvature="0"
     id="path4925"
     d="m 5364,7910 0,1123" /><path
     style="fill:none;stroke:#000000;stroke-width:198;stroke-linejoin:miter"
     inkscape:connector-curvature="0"
     id="path4927"
     d="m 4791,7910 0,1123" /><path
     style="fill:none;stroke:#000000;stroke-width:198;stroke-linejoin:miter"
     inkscape:connector-curvature="0"
     id="path4929"
     d="m 5936,7910 0,1123" /><path
     style="fill:none;stroke:#000000;stroke-width:198;stroke-linejoin:miter"
     inkscape:connector-curvature="0"
     id="path4931"
     d="m 4219,7910 0,1123" /><path
     style="fill:#f98a75;stroke:none"
     inkscape:connector-curvature="0"
     id="path4933"
     d="m 4966,6714 0,0 c 0,116 -29,216 -92,317 -62,101 -141,173 -249,232 -109,58 -216,85 -341,85 -126,0 -233,-27 -342,-85 -108,-59 -186,-131 -249,-232 -63,-101 -92,-201 -92,-317 l 0,0 c 0,0 0,0 0,0 0,-117 29,-216 92,-317 63,-102 141,-174 249,-233 109,-58 216,-84 342,-84 125,0 232,26 341,84 108,59 187,131 249,233 63,101 92,200 92,317 0,0 0,0 0,0 l 0,0 z" /><path
     style="fill:none;stroke:#000000;stroke-width:153;stroke-linejoin:round"
     inkscape:connector-curvature="0"
     id="path4935"
     d="m 4966,6714 0,0 c 0,116 -29,216 -92,317 -62,101 -141,173 -249,232 -109,58 -216,85 -341,85 -126,0 -233,-27 -342,-85 -108,-59 -186,-131 -249,-232 -63,-101 -92,-201 -92,-317 l 0,0 c 0,0 0,0 0,0 0,-117 29,-216 92,-317 63,-102 141,-174 249,-233 109,-58 216,-84 342,-84 125,0 232,26 341,84 108,59 187,131 249,233 63,101 92,200 92,317 0,0 0,0 0,0 l 0,0 z" /><path
     style="fill:#000000;stroke:none"
     inkscape:connector-curvature="0"
     id="path4937"
     d="m 4436,6682 c 0,25 -6,46 -18,68 -13,22 -28,37 -50,50 -22,12 -43,18 -68,18 -25,0 -47,-6 -69,-18 -21,-13 -37,-28 -50,-50 -12,-22 -18,-43 -18,-68 0,0 0,0 0,0 0,0 0,0 0,0 0,-26 6,-47 18,-69 13,-21 29,-37 50,-50 22,-12 44,-18 69,-18 25,0 46,6 68,18 22,13 37,29 50,50 12,22 18,43 18,69 0,0 0,0 0,0 0,0 0,0 0,0 z" /><path
     style="fill:none;stroke:#000000;stroke-width:153;stroke-linejoin:round"
     inkscape:connector-curvature="0"
     id="path4939"
     d="m 4436,6682 0,0 c 0,0 0,0 0,0 0,25 -6,46 -18,68 -13,22 -28,37 -50,50 -22,12 -43,18 -68,18 -25,0 -47,-6 -69,-18 -21,-13 -37,-28 -50,-50 -12,-22 -18,-43 -18,-68 0,0 0,0 0,0 l 0,0 c 0,0 0,0 0,0 0,-26 6,-47 18,-69 13,-21 29,-37 50,-50 22,-12 44,-18 69,-18 25,0 46,6 68,18 22,13 37,29 50,50 12,22 18,43 18,69 0,0 0,0 0,0 l 0,0 z" /><path
     style="fill:#f98a75;stroke:none"
     inkscape:connector-curvature="0"
     id="path4941"
     d="m 6462,7031 c -63,101 -141,173 -250,232 -109,58 -215,85 -341,85 -126,0 -232,-27 -341,-85 -109,-59 -187,-131 -250,-232 -63,-101 -91,-201 -91,-317 0,-117 28,-216 91,-317 63,-101 141,-174 250,-232 109,-59 215,-85 341,-85 126,0 232,26 341,85 109,58 187,131 250,232 63,101 91,200 91,317 0,116 -28,216 -91,317 z" /><path
     style="fill:none;stroke:#000000;stroke-width:153;stroke-linejoin:round"
     inkscape:connector-curvature="0"
     id="path4943"
     d="m 6553,6714 0,0 c 0,116 -28,216 -91,317 -63,101 -141,173 -250,232 -109,58 -215,85 -341,85 -126,0 -232,-27 -341,-85 -109,-59 -187,-131 -250,-232 -63,-101 -91,-201 -91,-317 l 0,0 c 0,-117 28,-216 91,-317 63,-101 141,-174 250,-232 109,-59 215,-85 341,-85 126,0 232,26 341,85 109,58 187,131 250,232 63,101 91,200 91,317 l 0,0 0,0 z" /><path
     style="fill:#000000;stroke:none"
     inkscape:connector-curvature="0"
     id="path4945"
     d="m 6023,6682 c 0,0 0,0 0,0 0,25 -5,46 -18,68 -12,22 -28,37 -50,50 -21,12 -43,18 -68,18 -25,0 -46,-6 -68,-18 -22,-13 -38,-28 -50,-50 -13,-22 -18,-43 -18,-68 0,0 0,0 0,0 0,0 0,0 0,0 0,-26 5,-47 18,-69 12,-21 28,-37 50,-50 22,-12 43,-18 68,-18 25,0 47,6 68,18 22,13 38,29 50,50 13,22 18,43 18,69 0,0 0,0 0,0 z" /><path
     style="fill:none;stroke:#000000;stroke-width:153;stroke-linejoin:round"
     inkscape:connector-curvature="0"
     id="path4947"
     d="m 6023,6682 0,0 c 0,0 0,0 0,0 0,25 -5,46 -18,68 -12,22 -28,37 -50,50 -21,12 -43,18 -68,18 -25,0 -46,-6 -68,-18 -22,-13 -38,-28 -50,-50 -13,-22 -18,-43 -18,-68 0,0 0,0 0,0 l 0,0 c 0,0 0,0 0,0 0,-26 5,-47 18,-69 12,-21 28,-37 50,-50 22,-12 43,-18 68,-18 25,0 47,6 68,18 22,13 38,29 50,50 13,22 18,43 18,69 0,0 0,0 0,0 l 0,0 z" /></g></svg>